PathFileType  4	(X/Y/Z) C:\Users\antoi\Documents\MyRepositories\mobilecap\ResultsAnalysis
DataRate	CameraRate	NumFrames	NumMarkers	Units	OrigDataRate	OrigDataStartFrame	OrigNumFrames
100.0	100.0	4	55	mm	100.0	1	781
Frame#	Time	r_knee			r_shank_antsup			r_ankle			r_calc			r_5meta			r_toe			L_knee			L_shank_antsup			L_ankle			L_calc			L_5meta			L_toe			r_mknee			r_mankle			L_mknee			L_mankle			r_sh2			r_sh3			r_sh4			L_sh2			L_sh3			r_thigh1			r_thigh2			r_thigh3			r_thigh4			r_thigh5			L_thigh1			L_thigh2			L_thigh3			L_thigh4			r.ASIS			r.PSIS			L.ASIS			L.PSIS			C7			R_Shoulder			L_Shoulder			R_Sternum			L_Sternum			R_humerus			R_elbow_med			R_elbow_lat			R_forearm			R_wrist_radius			R_wrist_ulna			L_humerus			L_elbow_med			L_elbow_lat			L_forearm			L_wrist_radius			L_wrist_ulna			R_HJC			L_HJC			R_HJC_reg			L_HJC_reg			
		X1	Y1	Z1	X2	Y2	Z2	X3	Y3	Z3	X4	Y4	Z4	X5	Y5	Z5	X6	Y6	Z6	X7	Y7	Z7	X8	Y8	Z8	X9	Y9	Z9	X10	Y10	Z10	X11	Y11	Z11	X12	Y12	Z12	X13	Y13	Z13	X14	Y14	Z14	X15	Y15	Z15	X16	Y16	Z16	X17	Y17	Z17	X18	Y18	Z18	X19	Y19	Z19	X20	Y20	Z20	X21	Y21	Z21	X22	Y22	Z22	X23	Y23	Z23	X24	Y24	Z24	X25	Y25	Z25	X26	Y26	Z26	X27	Y27	Z27	X28	Y28	Z28	X29	Y29	Z29	X30	Y30	Z30	X31	Y31	Z31	X32	Y32	Z32	X33	Y33	Z33	X34	Y34	Z34	X35	Y35	Z35	X36	Y36	Z36	X37	Y37	Z37	X38	Y38	Z38	X39	Y39	Z39	X40	Y40	Z40	X41	Y41	Z41	X42	Y42	Z42	X43	Y43	Z43	X44	Y44	Z44	X45	Y45	Z45	X46	Y46	Z46	X47	Y47	Z47	X48	Y48	Z48	X49	Y49	Z49	X50	Y50	Z50	X51	Y51	Z51	X52	Y52	Z52	X53	Y53	Z53	X54	Y54	Z54	X55	Y55	Z55	

1	0.00000000	-203.87370	553.05774	-451.25860	-182.02046	428.96651	-457.69957	-293.70856	101.39227	-448.21317	-360.78220	67.09945	-490.74083	-159.47543	36.70727	-403.87198	-123.70814	58.58123	-478.25424	-242.95629	543.99933	-804.91016	-211.34301	440.69989	-792.53382	-300.18015	98.51667	-799.26941	-361.39076	67.17989	-751.17331	-156.13461	35.58113	-828.92188	-125.17004	58.29027	-757.70355	-210.66175	533.23322	-579.90522	-266.60349	111.93951	-542.91656	-231.47517	534.30328	-674.02496	-274.77313	113.43783	-705.93738	-190.95971	313.88546	-474.82062	-242.42837	424.77936	-409.23868	-242.48132	307.61259	-407.29605	-290.98210	444.10614	-834.08173	-273.82000	324.67252	-849.79266	-84.05289	780.15090	-475.59220	-98.07673	668.64124	-487.22475	-131.66991	644.90498	-432.64406	-167.72262	780.79707	-401.02364	-180.77555	663.53549	-420.99689	-127.28490	790.11292	-819.22694	-139.28292	654.48706	-808.66467	-235.96339	796.91229	-849.98541	-248.28956	658.77612	-831.80761	-99.38432	1054.74582	-484.66038	-304.91632	1089.91820	-573.21790	-98.95145	1044.97290	-753.22655	-306.93007	1087.24366	-671.77234	-290.55135	1575.90771	-637.03832	-209.25808	1517.17771	-443.77602	-196.63963	1532.92958	-811.04479	-143.13939	1521.82666	-609.93223	-142.66227	1516.32300	-652.35985	-182.96261	1346.98839	-374.48642	-249.01575	1123.27194	-409.06379	-223.00786	1146.85925	-334.80442	-109.97371	1013.52278	-328.08543	-63.95901	903.75482	-318.60613	-95.28426	883.18448	-300.20227	-175.34800	1355.68800	-889.60267	-257.82383	1146.40150	-857.45475	-215.65708	1159.66199	-923.12396	-112.24475	1030.50085	-892.45807	-71.79511	920.45632	-910.44298	-107.40509	906.04566	-936.55621	-183.95404	975.43008	-519.90497	-180.78852	957.27037	-732.49920	-173.17864	973.47932	-519.31746	-176.80076	968.66864	-696.58644	
2	0.01000000	-203.95455	553.11939	-451.31410	-182.02990	428.98775	-457.72300	-293.69589	101.39143	-448.20966	-360.75672	67.11857	-490.73374	-159.46330	36.74026	-403.88822	-123.65742	58.60742	-478.26949	-242.98359	543.98321	-804.90367	-211.37151	440.68561	-792.54947	-300.21756	98.36736	-799.06826	-361.41548	67.21315	-751.18383	-156.13954	35.58978	-828.93486	-125.19381	58.26946	-757.69675	-210.66620	533.22928	-579.91350	-266.61780	111.91672	-542.91123	-231.48734	534.29668	-674.03237	-274.76746	113.40493	-705.92001	-190.98669	313.81367	-474.82203	-242.26054	424.68823	-409.20189	-242.51989	307.58756	-407.29566	-291.00879	444.08682	-834.06986	-273.83430	324.72855	-849.93322	-84.08979	780.19851	-475.65673	-98.11829	668.59595	-487.20155	-131.57979	644.87345	-432.67178	-167.87821	780.63323	-401.18828	-180.87541	663.45603	-421.06820	-127.34134	790.14505	-819.24926	-139.29590	654.44897	-808.65034	-236.01801	796.91795	-849.97054	-248.33766	658.76716	-831.81023	-100.71653	1053.42497	-485.21761	-305.05877	1089.80341	-573.18659	-99.01735	1044.99299	-753.24639	-306.99629	1087.19368	-671.71994	-290.63645	1575.91610	-637.07316	-209.35058	1517.18346	-443.67519	-196.75218	1532.91618	-810.97952	-143.23403	1521.79562	-609.87226	-142.78490	1516.32452	-652.33960	-183.03587	1347.02521	-374.48015	-249.03295	1123.27543	-409.05115	-223.04938	1146.87531	-334.78321	-109.88793	1013.48832	-327.98020	-63.93933	903.76082	-318.54943	-95.26583	883.20626	-300.15257	-175.42837	1355.67511	-889.56697	-257.86098	1146.41486	-857.45331	-215.77916	1159.77416	-923.37085	-112.29280	1030.51885	-892.43493	-71.85901	920.45348	-910.45382	-107.46325	906.08702	-936.46275	-184.82078	974.51531	-520.45697	-181.32408	957.38855	-733.13111	-174.31215	973.39219	-519.91252	-177.79059	968.70696	-696.80723	
3	0.02000000	-203.96650	553.12696	-451.32749	-182.03750	428.98577	-457.71987	-293.70379	101.37547	-448.20881	-360.73441	67.13926	-490.73840	-159.46924	36.75122	-403.88949	-123.66471	58.59974	-478.25996	-243.01200	543.96378	-804.89370	-211.39760	440.67404	-792.56209	-300.21417	98.32976	-799.02840	-361.44822	67.18242	-751.19651	-156.15890	35.60456	-828.96246	-125.21183	58.27534	-757.72363	-210.66815	533.23867	-579.90716	-266.59025	111.94832	-542.99622	-231.49528	534.28933	-674.04157	-274.75969	113.38661	-705.92729	-190.99125	313.77616	-474.86093	-242.19851	424.61939	-409.13773	-242.54163	307.57804	-407.29638	-291.03368	444.07639	-834.07217	-273.84215	324.73565	-849.99013	-84.13667	780.19782	-475.67461	-98.13932	668.57518	-487.19259	-131.55384	644.89000	-432.73851	-167.88436	780.58654	-401.19691	-180.85395	663.44278	-421.01777	-127.37452	790.15375	-819.25965	-139.34277	654.45375	-808.67075	-236.06442	796.91704	-849.96489	-248.37304	658.76000	-831.80747	-101.21447	1053.02036	-485.40282	-305.08452	1089.75620	-573.25934	-99.09067	1045.01039	-753.25424	-307.08214	1087.21074	-671.78051	-290.69693	1575.92121	-637.05663	-209.45281	1517.18044	-443.64180	-196.85479	1532.90528	-810.93398	-143.33325	1521.78534	-609.83391	-142.91658	1516.32902	-652.37549	-183.10461	1347.03534	-374.47538	-249.04803	1123.28153	-409.04045	-223.09942	1146.86726	-334.77539	-109.87981	1013.52834	-327.96248	-63.92681	903.77014	-318.52520	-95.25901	883.20769	-300.10374	-175.50333	1355.65517	-889.51170	-257.96918	1146.43222	-857.46069	-215.86333	1159.81663	-923.44271	-112.35564	1030.52127	-892.42337	-71.92066	920.46958	-910.50400	-107.54317	906.16165	-936.32426	-185.15974	974.23612	-520.67156	-181.52144	957.43740	-733.37054	-174.63215	973.32488	-520.07844	-178.21635	968.75776	-696.84889	
4	0.03000000	-203.93768	553.06977	-451.30551	-182.04605	428.96934	-457.70176	-293.70650	101.33978	-448.18968	-360.72768	67.14997	-490.75398	-159.48199	36.73768	-403.88257	-123.71665	58.54692	-478.23342	-243.04170	543.95132	-804.88770	-211.43293	440.65581	-792.54606	-300.21642	98.33290	-799.04985	-361.48546	67.11964	-751.22109	-156.17603	35.61407	-828.98384	-125.20220	58.28809	-757.74458	-210.67378	533.25048	-579.90549	-266.57004	111.96770	-543.05614	-231.50044	534.28552	-674.04803	-274.75731	113.39928	-705.93073	-190.98824	313.76854	-474.89592	-242.27332	424.63746	-409.06234	-242.54999	307.57212	-407.29700	-291.05701	444.07033	-834.07600	-273.86961	324.68909	-849.91808	-84.16444	780.19585	-475.68552	-98.16405	668.57149	-487.20640	-131.59035	644.89066	-432.78589	-167.82419	780.62851	-401.10869	-180.82630	663.38983	-420.99013	-127.40358	790.15015	-819.27176	-139.39655	654.47422	-808.70038	-236.09981	796.93237	-849.98542	-248.40293	658.75137	-831.79150	-101.18776	1053.20408	-485.40980	-305.08121	1089.78043	-573.33554	-99.15995	1045.01963	-753.25695	-307.16006	1087.25045	-671.85973	-290.77020	1575.90450	-637.04020	-209.55622	1517.17481	-443.67088	-196.95396	1532.90663	-810.89482	-143.44401	1521.78865	-609.81776	-143.06263	1516.34935	-652.41134	-183.16038	1347.01435	-374.45229	-249.06377	1123.28236	-409.02649	-223.14538	1146.84935	-334.76708	-109.93856	1013.55664	-327.97338	-63.93628	903.77855	-318.50639	-95.26547	883.19658	-300.05445	-175.58391	1355.64263	-889.48845	-258.12582	1146.41850	-857.46927	-215.92560	1159.81055	-923.39756	-112.43942	1030.53340	-892.43036	-71.98160	920.50279	-910.56769	-107.62024	906.22552	-936.24336	-185.15263	974.36787	-520.65622	-181.52750	957.43869	-733.34471	-174.51442	973.34888	-520.03320	-178.24425	968.80970	-696.80213	
